<svg xmlns="http://www.w3.org/2000/svg" width="50" height="50" viewBox="0 0 50 50" preserveAspectRatio="xMidYMid meet"><path fill="#4c4c4c" d="M15 5L25 5L25 10ZM35 5L35 15L30 15ZM35 45L25 45L25 40ZM15 45L15 35L20 35ZM5 15L15 15L15 20ZM45 15L45 25L40 25ZM45 35L35 35L35 30ZM5 35L5 25L10 25Z"/><path fill="#aacc66" d="M6.666666666666667 10a3.333333333333333,3.333333333333333 0 1,1 6.666666666666666,0a3.333333333333333,3.333333333333333 0 1,1 -6.666666666666666,0M36.666666666666664 10a3.333333333333333,3.333333333333333 0 1,1 6.666666666666666,0a3.333333333333333,3.333333333333333 0 1,1 -6.666666666666666,0M36.66666666666667 40a3.333333333333333,3.333333333333333 0 1,1 6.666666666666666,0a3.333333333333333,3.333333333333333 0 1,1 -6.666666666666666,0M6.666666666666668 40.00000000000001a3.333333333333333,3.333333333333333 0 1,1 6.666666666666666,0a3.333333333333333,3.333333333333333 0 1,1 -6.666666666666666,0M25 20L25 25L20 25ZM30 25L25 25L25 20ZM25 30L25 25L30 25ZM20 25L25 25L25 30Z"/></svg>