<svg xmlns="http://www.w3.org/2000/svg" width="50" height="50" viewBox="0 0 50 50" preserveAspectRatio="xMidYMid meet"><path fill="#e5e5e5" d="M15 15L15 5L20 5ZM25 5L35 5L35 10ZM35 35L35 45L30 45ZM25 45L15 45L15 40ZM5 25L5 15L10 15ZM35 15L45 15L45 20ZM45 25L45 35L40 35ZM15 35L5 35L5 30Z"/><path fill="#4c4c4c" d="M6.666666666666668 10a3.333333333333333,3.333333333333333 0 1,1 6.666666666666666,0a3.333333333333333,3.333333333333333 0 1,1 -6.666666666666666,0M36.66666666666667 10a3.333333333333333,3.333333333333333 0 1,1 6.666666666666666,0a3.333333333333333,3.333333333333333 0 1,1 -6.666666666666666,0M36.666666666666664 40.00000000000001a3.333333333333333,3.333333333333333 0 1,1 6.666666666666666,0a3.333333333333333,3.333333333333333 0 1,1 -6.666666666666666,0M6.666666666666667 40a3.333333333333333,3.333333333333333 0 1,1 6.666666666666666,0a3.333333333333333,3.333333333333333 0 1,1 -6.666666666666666,0"/><path fill="#d17588" d="M25 20L25 25L20 25ZM30 25L25 25L25 20ZM25 30L25 25L30 25ZM20 25L25 25L25 30Z"/></svg>