<svg xmlns="http://www.w3.org/2000/svg" width="50" height="50" viewBox="0 0 50 50" preserveAspectRatio="xMidYMid meet"><path fill="#e5e5e5" d="M15 15L15 5L20 5ZM25 5L35 5L35 10ZM35 35L35 45L30 45ZM25 45L15 45L15 40ZM5 25L5 15L10 15ZM35 15L45 15L45 20ZM45 25L45 35L40 35ZM15 35L5 35L5 30Z"/><path fill="#ba75d1" d="M15 10L10 15L5 10L10 5ZM40 15L35 10L40 5L45 10ZM35 40L40 35L45 40L40 45ZM10 35L15 40L10 45L5 40Z"/><path fill="#4c4c4c" d="M15 15L25 15L25 16.6L20.8 25L15 25ZM35 15L35 25L33.4 25L25 20.8L25 15ZM35 35L25 35L25 33.4L29.2 25L35 25ZM15 35L15 25L16.6 25L25 29.2L25 35Z"/></svg>